<svg width="730" height="454" viewBox="0 0 730 454" fill="none" xmlns="http://www.w3.org/2000/svg">
<path style="mix-blend-mode:screen" opacity="0.5" d="M369.069 110.238L-7 228.728L224.681 433.335L640.053 77.1838L369.069 110.238Z" fill="url(#paint0_linear_192_466)"/>
<path style="mix-blend-mode:screen" d="M730 0L67.396 312.776L78.4204 261.807L9.52435 221.84L730 0Z" fill="url(#paint1_linear_192_466)"/>
<path style="mix-blend-mode:screen" d="M730 0L236.825 354.082L323.633 451.931L421.002 454L730 0Z" fill="url(#paint2_linear_192_466)"/>
<path d="M730 0L352.544 177.394L388.367 292.793L730 0Z" fill="url(#paint3_linear_192_466)"/>
<path style="mix-blend-mode:multiply" d="M730 0L352.544 177.394L388.367 292.793L730 0Z" fill="url(#paint4_linear_192_466)"/>
<path d="M730 0L352.544 177.394L289.708 181.727L252.498 147.26L730 0Z" fill="url(#paint5_linear_192_466)"/>
<path d="M730 0L424.215 219.089L388.367 292.793L730 0Z" fill="url(#paint6_linear_192_466)"/>
<path style="mix-blend-mode:multiply" d="M730 0L424.215 219.089L388.367 292.793L730 0Z" fill="url(#paint7_linear_192_466)"/>
<path d="M730 0L424.215 219.089L471.865 271.616L530.418 292.963L730 0Z" fill="url(#paint8_linear_192_466)"/>
<path d="M530.418 292.963L471.865 271.616L424.215 219.089L388.367 292.792L352.544 177.394L289.708 181.726L252.498 147.26L291.071 180.68L353.615 176.98L388.708 287.973L424.215 219.089L472.06 269.377L530.418 292.963Z" fill="white"/>
<defs>
<linearGradient id="paint0_linear_192_466" x1="478.144" y1="-1.8256" x2="186.911" y2="276.993" gradientUnits="userSpaceOnUse">
<stop stop-color="#2AF6FF"/>
<stop offset="0.02" stop-color="#29EEF7"/>
<stop offset="0.13" stop-color="#1FB7BE"/>
<stop offset="0.25" stop-color="#17868B"/>
<stop offset="0.37" stop-color="#105D60"/>
<stop offset="0.49" stop-color="#0A3B3E"/>
<stop offset="0.62" stop-color="#062123"/>
<stop offset="0.74" stop-color="#030F0F"/>
<stop offset="0.87" stop-color="#010404"/>
<stop offset="1"/>
</linearGradient>
<linearGradient id="paint1_linear_192_466" x1="554.17" y1="63.2611" x2="118.847" y2="235.443" gradientUnits="userSpaceOnUse">
<stop stop-color="#43E8E1"/>
<stop offset="0.09" stop-color="#36BDB7"/>
<stop offset="0.22" stop-color="#288B87"/>
<stop offset="0.34" stop-color="#1C605D"/>
<stop offset="0.47" stop-color="#123E3C"/>
<stop offset="0.6" stop-color="#0A2321"/>
<stop offset="0.73" stop-color="#040F0F"/>
<stop offset="0.86" stop-color="#010404"/>
<stop offset="1"/>
</linearGradient>
<linearGradient id="paint2_linear_192_466" x1="603.354" y1="131.025" x2="342.935" y2="390.012" gradientUnits="userSpaceOnUse">
<stop stop-color="#43E8E1"/>
<stop offset="0.09" stop-color="#36BDB7"/>
<stop offset="0.22" stop-color="#288B87"/>
<stop offset="0.34" stop-color="#1C605D"/>
<stop offset="0.47" stop-color="#123E3C"/>
<stop offset="0.6" stop-color="#0A2321"/>
<stop offset="0.73" stop-color="#040F0F"/>
<stop offset="0.86" stop-color="#010404"/>
<stop offset="1"/>
</linearGradient>
<linearGradient id="paint3_linear_192_466" x1="585.71" y1="245.061" x2="529.913" y2="48.7349" gradientUnits="userSpaceOnUse">
<stop stop-color="#D4D1D8"/>
<stop offset="1" stop-color="white"/>
</linearGradient>
<linearGradient id="paint4_linear_192_466" x1="551.128" y1="128.664" x2="533.893" y2="90.7682" gradientUnits="userSpaceOnUse">
<stop stop-color="white"/>
<stop offset="1" stop-color="#E6E7E8"/>
</linearGradient>
<linearGradient id="paint5_linear_192_466" x1="174.135" y1="-108.754" x2="489.148" y2="78.4741" gradientUnits="userSpaceOnUse">
<stop stop-color="#D4D1D8"/>
<stop offset="1" stop-color="white"/>
</linearGradient>
<linearGradient id="paint6_linear_192_466" x1="398.394" y1="168.558" x2="559.55" y2="146.343" gradientUnits="userSpaceOnUse">
<stop stop-color="#D4D1D8"/>
<stop offset="1" stop-color="white"/>
</linearGradient>
<linearGradient id="paint7_linear_192_466" x1="551.639" y1="305.084" x2="555.851" y2="216.388" gradientUnits="userSpaceOnUse">
<stop stop-color="white"/>
<stop offset="1" stop-color="#DEDFE0"/>
</linearGradient>
<linearGradient id="paint8_linear_192_466" x1="804.226" y1="267.746" x2="558.014" y2="107.99" gradientUnits="userSpaceOnUse">
<stop stop-color="#D4D1D8"/>
<stop offset="1" stop-color="white"/>
</linearGradient>
</defs>
</svg>
