<svg width="37" height="50" viewBox="0 0 37 50" fill="none" xmlns="http://www.w3.org/2000/svg">
<path d="M32.8953 21.7422V15.1422C32.8953 6.94218 26.1953 0.242188 17.9953 0.242188C9.79533 0.242188 3.09531 6.94218 3.09531 15.1422V21.7422H0.195312V49.5422H36.1953V21.7422H32.8953ZM21.3953 36.1422V42.0422C21.3953 43.5422 20.1953 44.8422 18.5953 44.8422C17.0953 44.8422 15.7953 43.6422 15.7953 42.0422V36.1422C14.7953 35.3422 14.1953 34.1422 14.1953 32.8422C14.1953 30.4422 16.1953 28.4422 18.5953 28.4422C20.9953 28.4422 22.9953 30.4422 22.9953 32.8422C22.9953 34.1422 22.3953 35.3422 21.3953 36.1422ZM27.3953 21.7422H8.39532V15.1422C8.39532 9.94218 12.6953 5.64218 17.8953 5.64218C23.0953 5.64218 27.3953 9.94218 27.3953 15.1422V21.7422Z" fill="white"/>
</svg>
